<svg width="358" height="394" viewBox="0 0 358 394" fill="none" xmlns="http://www.w3.org/2000/svg">
<path d="M73.71 389.167C61.8667 358.624 62.1099 319.961 74.4043 278.791C86.6987 237.621 110.405 196.085 142.081 160.213C173.758 124.341 211.756 95.9983 250.562 79.2996C289.368 62.601 326.961 58.4151 357.885 67.3495L356.615 67.3495C326.365 58.6099 288.457 66.8521 250.497 83.1866C212.537 99.5212 175.367 127.246 144.381 162.336C113.395 197.426 90.206 238.056 78.1796 278.329C66.1532 318.601 59.5301 351.856 71.1152 381.733L73.71 389.167Z" fill="black" fill-opacity="0.6"/>
<path d="M239.115 77.2333L239.633 84.5214L246.724 82.7612L239.952 85.5053L243.818 91.7055L239.115 86.1133L234.413 91.7055L238.279 85.5053L231.507 82.7612L238.598 84.5214L239.115 77.2333Z" fill="#D991A4"/>
<path d="M159.115 135.233L159.632 142.521L166.724 140.761L159.952 143.505L163.818 149.705L159.115 144.113L154.413 149.705L158.278 143.505L151.507 140.761L158.598 142.521L159.115 135.233Z" fill="#D991A4"/>
<path d="M94.9704 213.358L99.1709 219.336L104.34 214.172L99.9521 220.014L106.461 223.334L99.5484 220.967L98.4023 228.183L98.5178 220.877L91.3009 222.017L98.2845 219.869L94.9704 213.358Z" fill="#D991A4"/>
<path d="M63.4957 315.321L66.7856 321.845L72.6481 317.484L67.4602 322.629L73.419 326.857L66.9228 323.513L64.743 330.486L65.916 323.275L58.6101 323.357L65.8312 322.244L63.4957 315.321Z" fill="#D991A4"/>
</svg>
